<svg width="14" height="26" viewBox="0 0 14 26" fill="none" xmlns="http://www.w3.org/2000/svg">
<path d="M11.2025 25.25C10.9411 25.2509 10.6828 25.1932 10.4465 25.0811C10.2103 24.9691 10.0022 24.8055 9.83751 24.6025L1.38501 14.1025C1.12762 13.7894 0.986908 13.3966 0.986908 12.9913C0.986908 12.5859 1.12762 12.1931 1.38501 11.88L10.135 1.38C10.4321 1.02262 10.8589 0.79788 11.3216 0.755215C11.7844 0.712551 12.2451 0.855459 12.6025 1.1525C12.9599 1.44954 13.1846 1.87639 13.2273 2.33914C13.27 2.80188 13.1271 3.26262 12.83 3.62L5.00751 13L12.5675 22.38C12.7815 22.6369 12.9174 22.9497 12.9592 23.2814C13.001 23.6131 12.9469 23.9498 12.8033 24.2518C12.6597 24.5537 12.4326 24.8082 12.1489 24.9851C11.8653 25.162 11.5368 25.2539 11.2025 25.25Z" fill="white"/>
</svg>
