<svg width="26" height="14" viewBox="0 0 26 14" fill="none" xmlns="http://www.w3.org/2000/svg">
<path d="M0.750006 2.79746C0.749117 3.0589 0.806818 3.31722 0.918869 3.55343C1.03092 3.78964 1.19447 3.99775 1.39751 4.16246L11.8975 12.615C12.2106 12.8724 12.6034 13.0131 13.0088 13.0131C13.4141 13.0131 13.8069 12.8724 14.12 12.615L24.62 3.86496C24.9774 3.56791 25.2021 3.14107 25.2448 2.67832C25.2875 2.21558 25.1445 1.75484 24.8475 1.39746C24.5505 1.04008 24.1236 0.815336 23.6609 0.772672C23.1981 0.730006 22.7374 0.872914 22.38 1.16996L13 8.99246L3.62 1.43246C3.36313 1.21846 3.05034 1.08253 2.71863 1.04074C2.38692 0.998949 2.05017 1.05305 1.74825 1.19665C1.44633 1.34025 1.19186 1.56733 1.01495 1.85102C0.838041 2.13471 0.7461 2.46315 0.750006 2.79746Z" fill="white"/>
</svg>
