<svg width="14" height="26" viewBox="0 0 14 26" fill="none" xmlns="http://www.w3.org/2000/svg">
<path d="M2.79749 25.25C3.05893 25.2509 3.31725 25.1932 3.55346 25.0811C3.78967 24.9691 3.99778 24.8055 4.16249 24.6025L12.615 14.1025C12.8724 13.7894 13.0131 13.3966 13.0131 12.9913C13.0131 12.5859 12.8724 12.1931 12.615 11.88L3.86499 1.38C3.56794 1.02262 3.1411 0.79788 2.67835 0.755215C2.21561 0.712551 1.75487 0.855459 1.39749 1.1525C1.04011 1.44954 0.815367 1.87639 0.772702 2.33914C0.730037 2.80188 0.872945 3.26262 1.16999 3.62L8.99249 13L1.43249 22.38C1.21849 22.6369 1.08256 22.9497 1.04077 23.2814C0.99898 23.6131 1.05308 23.9498 1.19668 24.2518C1.34028 24.5537 1.56736 24.8082 1.85105 24.9851C2.13475 25.162 2.46318 25.2539 2.79749 25.25Z" fill="white"/>
</svg>
